# xmcd
# 
# Track frame offsets:
#     150
#     18096
#     37563
#     54749
#     68981
#     88417
# 
# Disc length: 1382
# 
# Revision: 1
# Processed by: cddbd v1.5.2PL0 Copyright (c) Steve Scherf et al.
# Submitted via: fre:ac v1.0.27
# 
DISCID=44056406
DTITLE=Daley - Alone Together EP
DYEAR=2012
DGENRE=Urban R&B Soul
TTITLE0=Alone Together feat. Marsha Ambrosius
TTITLE1=Blame The World
TTITLE2=Game Over
TTITLE3=Remember Me feat. Jessie J
TTITLE4=Those Who Wait
TTITLE5=Love Is A Losing Game (Acoustic)
EXTD=Republic Records\nPolydor Ltd. (UK]\nUMG Recordings Inc.\nUniversal Music Distribution
EXTT0=
EXTT1=
EXTT2=
EXTT3=
EXTT4=
EXTT5=
PLAYORDER=
